<?xml version="1.0" encoding="UTF-8"?>
<svg xmlns="http://www.w3.org/2000/svg" xmlns:xlink="http://www.w3.org/1999/xlink" width="96pt" height="96pt" viewBox="0 0 96 96" version="1.1">
<defs>
<linearGradient id="linear0" gradientUnits="userSpaceOnUse" x1="4" y1="4" x2="60" y2="32" gradientTransform="matrix(1,0,0,1,16,12)">
<stop offset="0" style="stop-color:rgb(100%,100%,100%);stop-opacity:1;"/>
<stop offset="1" style="stop-color:rgb(88.235294%,91.764706%,100%);stop-opacity:1;"/>
</linearGradient>
<linearGradient id="linear1" gradientUnits="userSpaceOnUse" x1="4" y1="18" x2="32" y2="60" gradientTransform="matrix(1,0,0,1,16,12)">
<stop offset="0" style="stop-color:rgb(80%,83.921569%,93.333333%);stop-opacity:1;"/>
<stop offset="1" style="stop-color:rgb(62.352941%,69.019608%,83.137255%);stop-opacity:1;"/>
</linearGradient>
<linearGradient id="linear2" gradientUnits="userSpaceOnUse" x1="32" y1="18" x2="60" y2="60" gradientTransform="matrix(1,0,0,1,16,12)">
<stop offset="0" style="stop-color:rgb(81.176471%,92.941176%,91.372549%);stop-opacity:1;"/>
<stop offset="1" style="stop-color:rgb(49.803922%,81.176471%,76.862745%);stop-opacity:1;"/>
</linearGradient>
</defs>
<g id="surface153">
<path style=" stroke:none;fill-rule:nonzero;fill:rgb(4.313725%,7.843137%,21.568627%);fill-opacity:0.08;" d="M 76 80 C 76 82.484375 63.464844 84.5 48 84.5 C 32.535156 84.5 20 82.484375 20 80 C 20 77.515625 32.535156 75.5 48 75.5 C 63.464844 75.5 76 77.515625 76 80 "/>
<path style=" stroke:none;fill-rule:nonzero;fill:rgb(4.313725%,7.843137%,21.568627%);fill-opacity:0.12;" d="M 70 80 C 70 81.878906 60.148438 83.398438 48 83.398438 C 35.851562 83.398438 26 81.878906 26 80 C 26 78.121094 35.851562 76.601562 48 76.601562 C 60.148438 76.601562 70 78.121094 70 80 "/>
<path style=" stroke:none;fill-rule:nonzero;fill:rgb(4.313725%,7.843137%,21.568627%);fill-opacity:0.18;" d="M 64 80 C 64 81.324219 56.835938 82.398438 48 82.398438 C 39.164062 82.398438 32 81.324219 32 80 C 32 78.675781 39.164062 77.601562 48 77.601562 C 56.835938 77.601562 64 78.675781 64 80 "/>
<path style=" stroke:none;fill-rule:nonzero;fill:url(#linear0);" d="M 48 16 L 76 30 L 48 44 L 20 30 Z M 48 16 "/>
<path style=" stroke:none;fill-rule:nonzero;fill:url(#linear1);" d="M 20 30 L 48 44 L 48 72 L 20 58 Z M 20 30 "/>
<path style=" stroke:none;fill-rule:nonzero;fill:url(#linear2);" d="M 76 30 L 76 58 L 48 72 L 48 44 Z M 76 30 "/>
<path style="fill:none;stroke-width:2.6;stroke-linecap:round;stroke-linejoin:round;stroke:rgb(4.313725%,7.843137%,21.568627%);stroke-opacity:1;stroke-miterlimit:10;" d="M 32 4 L 60 18 L 60 46 L 32 60 L 4 46 L 4 18 Z M 32 4 " transform="matrix(1,0,0,1,16,12)"/>
<path style="fill:none;stroke-width:2.6;stroke-linecap:round;stroke-linejoin:round;stroke:rgb(4.313725%,7.843137%,21.568627%);stroke-opacity:1;stroke-miterlimit:10;" d="M 32 4 L 32 32 " transform="matrix(1,0,0,1,16,12)"/>
<path style="fill:none;stroke-width:2.6;stroke-linecap:round;stroke-linejoin:round;stroke:rgb(4.313725%,7.843137%,21.568627%);stroke-opacity:1;stroke-miterlimit:10;" d="M 4 18 L 32 32 " transform="matrix(1,0,0,1,16,12)"/>
<path style="fill:none;stroke-width:2.6;stroke-linecap:round;stroke-linejoin:round;stroke:rgb(4.313725%,7.843137%,21.568627%);stroke-opacity:1;stroke-miterlimit:10;" d="M 60 18 L 32 32 " transform="matrix(1,0,0,1,16,12)"/>
<path style="fill:none;stroke-width:1.4;stroke-linecap:round;stroke-linejoin:round;stroke:rgb(4.313725%,7.843137%,21.568627%);stroke-opacity:0.28;stroke-miterlimit:10;" d="M 32 32 L 32 60 " transform="matrix(1,0,0,1,16,12)"/>
<path style="fill:none;stroke-width:1.4;stroke-linecap:round;stroke-linejoin:round;stroke:rgb(4.313725%,7.843137%,21.568627%);stroke-opacity:0.28;stroke-miterlimit:10;" d="M 32 32 L 4 46 " transform="matrix(1,0,0,1,16,12)"/>
<path style="fill:none;stroke-width:1.4;stroke-linecap:round;stroke-linejoin:round;stroke:rgb(4.313725%,7.843137%,21.568627%);stroke-opacity:0.28;stroke-miterlimit:10;" d="M 32 32 L 60 46 " transform="matrix(1,0,0,1,16,12)"/>
<path style=" stroke:none;fill-rule:nonzero;fill:rgb(18.431373%,41.960784%,100%);fill-opacity:1;" d="M 52.398438 16 C 52.398438 21.867188 43.601562 21.867188 43.601562 16 C 43.601562 10.132812 52.398438 10.132812 52.398438 16 "/>
<path style=" stroke:none;fill-rule:nonzero;fill:rgb(4.313725%,7.843137%,21.568627%);fill-opacity:1;" d="M 80.398438 30 C 80.398438 35.867188 71.601562 35.867188 71.601562 30 C 71.601562 24.132812 80.398438 24.132812 80.398438 30 "/>
<path style=" stroke:none;fill-rule:nonzero;fill:rgb(9.803922%,82.745098%,77.254902%);fill-opacity:1;" d="M 80.398438 58 C 80.398438 63.867188 71.601562 63.867188 71.601562 58 C 71.601562 52.132812 80.398438 52.132812 80.398438 58 "/>
<path style=" stroke:none;fill-rule:nonzero;fill:rgb(4.313725%,7.843137%,21.568627%);fill-opacity:1;" d="M 52.398438 72 C 52.398438 77.867188 43.601562 77.867188 43.601562 72 C 43.601562 66.132812 52.398438 66.132812 52.398438 72 "/>
<path style=" stroke:none;fill-rule:nonzero;fill:rgb(96.078431%,61.960784%,4.313725%);fill-opacity:1;" d="M 24.398438 58 C 24.398438 63.867188 15.601562 63.867188 15.601562 58 C 15.601562 52.132812 24.398438 52.132812 24.398438 58 "/>
<path style=" stroke:none;fill-rule:nonzero;fill:rgb(4.313725%,7.843137%,21.568627%);fill-opacity:1;" d="M 24.398438 30 C 24.398438 35.867188 15.601562 35.867188 15.601562 30 C 15.601562 24.132812 24.398438 24.132812 24.398438 30 "/>
<path style=" stroke:none;fill-rule:nonzero;fill:rgb(4.313725%,7.843137%,21.568627%);fill-opacity:1;" d="M 53.398438 44 C 53.398438 51.199219 42.601562 51.199219 42.601562 44 C 42.601562 36.800781 53.398438 36.800781 53.398438 44 "/>
</g>
</svg>
